<svg fill="#ed333b" version="1.1" id="Capa_1" xmlns="http://www.w3.org/2000/svg" xmlns:xlink="http://www.w3.org/1999/xlink" viewBox="0 0 592.017 592.017" xml:space="preserve"><g id="SVGRepo_bgCarrier" stroke-width="0"></g><g id="SVGRepo_tracerCarrier" stroke-linecap="round" stroke-linejoin="round"></g><g id="SVGRepo_iconCarrier"> <g> <g> <g> <circle cx="503.439" cy="93.853" r="21.216"></circle> <path d="M503.439,115.569c-11.975,0-21.716-9.742-21.716-21.716s9.741-21.716,21.716-21.716s21.717,9.742,21.717,21.716 S515.414,115.569,503.439,115.569z M503.439,73.136c-11.423,0-20.716,9.293-20.716,20.716s9.293,20.716,20.716,20.716 s20.717-9.293,20.717-20.716S514.862,73.136,503.439,73.136z"></path> </g> <g> <circle cx="440.2" cy="93.853" r="21.216"></circle> <path d="M440.2,115.569c-11.975,0-21.717-9.742-21.717-21.716s9.742-21.716,21.717-21.716s21.716,9.742,21.716,21.716 S452.175,115.569,440.2,115.569z M440.2,73.136c-11.423,0-20.717,9.293-20.717,20.716s9.294,20.716,20.717,20.716 s20.716-9.293,20.716-20.716S451.623,73.136,440.2,73.136z"></path> </g> <g> <circle cx="376.96" cy="93.853" r="21.216"></circle> <path d="M376.96,115.569c-11.975,0-21.716-9.742-21.716-21.716s9.741-21.716,21.716-21.716s21.717,9.742,21.717,21.716 S388.935,115.569,376.96,115.569z M376.96,73.136c-11.423,0-20.716,9.293-20.716,20.716s9.293,20.716,20.716,20.716 s20.717-9.293,20.717-20.716S388.383,73.136,376.96,73.136z"></path> </g> <g> <path d="M58.64,582.998h474.736c32.059,0,58.141-26.082,58.141-58.141V67.159c0-32.059-26.082-58.14-58.141-58.14H58.64 c-32.059,0-58.14,26.082-58.14,58.14v457.698C0.5,556.916,26.582,582.998,58.64,582.998z M548.676,524.857 c0,8.449-6.85,15.299-15.3,15.299H58.64c-8.451,0-15.3-6.85-15.3-15.299V175.483h505.336V524.857L548.676,524.857z M43.34,67.159 c0-8.45,6.85-15.3,15.3-15.3h474.736c8.451,0,15.3,6.85,15.3,15.3v65.484H43.34V67.159z"></path> <path d="M533.376,583.498H58.64C26.306,583.498,0,557.192,0,524.857V67.159c0-32.334,26.306-58.64,58.64-58.64h474.736 c32.335,0,58.641,26.306,58.641,58.64v457.698C592.017,557.192,565.711,583.498,533.376,583.498z M58.64,9.519 C26.857,9.519,1,35.376,1,67.159v457.698c0,31.783,25.857,57.641,57.64,57.641h474.736c31.783,0,57.641-25.857,57.641-57.641 V67.159c0-31.783-25.857-57.64-57.641-57.64H58.64z M533.376,540.656H58.64c-8.712,0-15.8-7.087-15.8-15.799V174.983h506.336 v349.874C549.176,533.569,542.088,540.656,533.376,540.656z M43.84,175.983v348.874c0,8.16,6.639,14.799,14.8,14.799h474.736 c8.16,0,14.8-6.639,14.8-14.799V175.983H43.84z M549.176,133.143H42.84V67.159c0-8.712,7.088-15.8,15.8-15.8h474.736 c8.712,0,15.8,7.088,15.8,15.8V133.143z M43.84,132.143h504.336V67.159c0-8.161-6.64-14.8-14.8-14.8H58.64 c-8.161,0-14.8,6.64-14.8,14.8V132.143z"></path> </g> <g> <path d="M237.273,445.443c4.017,4.016,9.465,6.273,15.146,6.273s11.129-2.258,15.146-6.273l160.292-160.292 c8.364-8.365,8.364-21.927,0-30.292c-8.365-8.365-21.928-8.365-30.293,0L252.419,400.003l-58.06-58.059 c-8.365-8.365-21.927-8.365-30.292,0c-8.365,8.365-8.365,21.926,0,30.291L237.273,445.443z"></path> <path d="M252.419,452.216c-5.854,0-11.358-2.28-15.5-6.42l-73.206-73.207c-8.546-8.546-8.546-22.452,0-30.998 c4.14-4.141,9.645-6.42,15.5-6.42s11.359,2.279,15.5,6.42l57.707,57.705l144.792-144.792c4.141-4.14,9.645-6.42,15.5-6.42 s11.359,2.28,15.5,6.42c8.546,8.546,8.546,22.453,0,31L267.919,445.796C263.777,449.936,258.273,452.216,252.419,452.216z M179.213,336.171c-5.588,0-10.842,2.176-14.793,6.127c-8.156,8.156-8.156,21.428,0,29.584l73.206,73.207 c3.953,3.951,9.206,6.127,14.793,6.127c5.586,0,10.84-2.176,14.793-6.127l160.292-160.292c8.155-8.157,8.155-21.429,0-29.585 c-3.951-3.951-9.205-6.127-14.793-6.127s-10.842,2.176-14.793,6.127L252.419,400.71l-58.414-58.412 C190.055,338.347,184.801,336.171,179.213,336.171z"></path> </g> </g> </g> </g></svg>